<svg width="756" height="151" xmlns="http://www.w3.org/2000/svg" xmlns:xlink="http://www.w3.org/1999/xlink" overflow="hidden"><g><rect x="0" y="0" width="756" height="150.8" fill="#FFFFFF"/><rect x="257" y="0" width="240" height="150.8" fill="#2A9CD4" fill-opacity="0.501961"/><text fill="#2A9CD4" font-family="Calibri,Calibri_MSFontService,sans-serif" font-weight="700" font-size="24" transform="matrix(1 0 0 0.998677 379.754 27)">Taxonomie</text><path d="M341.753 120.942 323.288 66.0312 327.081 64.7591 345.546 119.67ZM320.132 69.197 322 55.9259 331.51 65.381Z" fill="#FFFFFF"/><rect x="3.00003" y="0" width="241" height="150.8" fill="#2A9CD4" fill-opacity="0.501961"/><text fill="#2A9CD4" font-family="Calibri,Calibri_MSFontService,sans-serif" font-weight="700" font-size="24" transform="matrix(1 0 0 0.998677 133.781 27)">Vokabular</text><path d="M34 30.4597C34 16.3951 45.6406 4.99344 60 4.99344 74.3594 4.99344 86 16.3951 86 30.4597 86 44.5243 74.3594 55.9259 60 55.9259 45.6406 55.9259 34 44.5243 34 30.4597Z" fill="#FFFFFF" fill-rule="evenodd"/><text fill="#13110D" font-family="Calibri,Calibri_MSFontService,sans-serif" font-weight="700" font-size="32" transform="matrix(1 0 0 0.998677 50.1685 41)">A</text><path d="M145 68.9088C145 54.5684 156.641 42.9432 171 42.9432 185.359 42.9432 197 54.5684 197 68.9088 197 83.2492 185.359 94.8744 171 94.8744 156.641 94.8744 145 83.2492 145 68.9088Z" fill="#FFFFFF" fill-rule="evenodd"/><text fill="#13110D" font-family="Calibri,Calibri_MSFontService,sans-serif" font-weight="700" font-size="32" transform="matrix(1 0 0 0.998677 162.18 80)">B</text><path d="M65.0001 120.84C65.0001 106.5 76.6406 94.8744 91 94.8744 105.359 94.8744 117 106.5 117 120.84 117 135.18 105.359 146.806 91 146.806 76.6406 146.806 65.0001 135.18 65.0001 120.84Z" fill="#FFFFFF" fill-rule="evenodd"/><text fill="#13110D" font-family="Calibri,Calibri_MSFontService,sans-serif" font-weight="700" font-size="32" transform="matrix(1 0 0 0.998677 82.3761 131)">C</text><path d="M287 30.4597C287 16.3951 298.641 4.99344 313 4.99344 327.359 4.99344 339 16.3951 339 30.4597 339 44.5243 327.359 55.9259 313 55.9259 298.641 55.9259 287 44.5243 287 30.4597Z" fill="#FFFFFF" fill-rule="evenodd"/><text fill="#13110D" font-family="Calibri,Calibri_MSFontService,sans-serif" font-weight="700" font-size="32" transform="matrix(1 0 0 0.998677 303.297 41)">A</text><path d="M416.74 70.782 347.865 47.9823 349.124 44.1897 417.999 66.9893ZM348.505 52.4036 339 42.9432 352.281 41.0256Z" fill="#FFFFFF"/><path d="M398 68.9088C398 54.5684 409.641 42.9432 424 42.9432 438.359 42.9432 450 54.5684 450 68.9088 450 83.2492 438.359 94.8744 424 94.8744 409.641 94.8744 398 83.2492 398 68.9088Z" fill="#FFFFFF" fill-rule="evenodd"/><text fill="#13110D" font-family="Calibri,Calibri_MSFontService,sans-serif" font-weight="700" font-size="32" transform="matrix(1 0 0 0.998677 415.308 80)">B</text><path d="M318 120.84C318 106.5 329.641 94.8744 344 94.8744 358.359 94.8744 370 106.5 370 120.84 370 135.18 358.359 146.806 344 146.806 329.641 146.806 318 135.18 318 120.84Z" fill="#FFFFFF" fill-rule="evenodd"/><text fill="#13110D" font-family="Calibri,Calibri_MSFontService,sans-serif" font-weight="700" font-size="32" transform="matrix(1 0 0 0.998677 335.504 131)">C</text><text font-family="Calibri,Calibri_MSFontService,sans-serif" font-weight="700" font-size="16" transform="matrix(1 0 0 0.998677 354.494 57)">ist ein</text><text font-family="Calibri,Calibri_MSFontService,sans-serif" font-weight="700" font-size="16" transform="matrix(1 0 0 0.998677 313.443 85)">ist ein</text><rect x="510" y="0" width="240" height="150.8" fill="#2A9CD4" fill-opacity="0.501961"/><text fill="#2A9CD4" font-family="Calibri,Calibri_MSFontService,sans-serif" font-weight="700" font-size="24" transform="matrix(1 0 0 0.998677 643.252 27)">Ontologie</text><path d="M594.753 120.942 576.288 66.0312 580.081 64.7591 598.546 119.67ZM573.132 69.197 575 55.9259 584.51 65.381Z" fill="#FFFFFF"/><path d="M540 30.4597C540 16.3951 551.641 4.99344 566 4.99344 580.359 4.99344 592 16.3951 592 30.4597 592 44.5243 580.359 55.9259 566 55.9259 551.641 55.9259 540 44.5243 540 30.4597Z" fill="#FFFFFF" fill-rule="evenodd"/><text fill="#13110D" font-family="Calibri,Calibri_MSFontService,sans-serif" font-weight="700" font-size="32" transform="matrix(1 0 0 0.998677 556.425 41)">A</text><path d="M669.74 70.782 600.865 47.9823 602.124 44.1897 670.999 66.9893ZM601.505 52.4036 592 42.9432 605.281 41.0256Z" fill="#FFFFFF"/><path d="M652 68.9088C652 54.5684 663.417 42.9432 677.5 42.9432 691.583 42.9432 703 54.5684 703 68.9088 703 83.2492 691.583 94.8744 677.5 94.8744 663.417 94.8744 652 83.2492 652 68.9088Z" fill="#FFFFFF" fill-rule="evenodd"/><text fill="#13110D" font-family="Calibri,Calibri_MSFontService,sans-serif" font-weight="700" font-size="32" transform="matrix(1 0 0 0.998677 668.436 80)">B</text><path d="M571 120.84C571 106.5 582.641 94.8744 597 94.8744 611.359 94.8744 623 106.5 623 120.84 623 135.18 611.359 146.806 597 146.806 582.641 146.806 571 135.18 571 120.84Z" fill="#FFFFFF" fill-rule="evenodd"/><text fill="#13110D" font-family="Calibri,Calibri_MSFontService,sans-serif" font-weight="700" font-size="32" transform="matrix(1 0 0 0.998677 588.633 131)">C</text><text font-family="Calibri,Calibri_MSFontService,sans-serif" font-weight="700" font-size="16" transform="matrix(1 0 0 0.998677 607.622 57)">ist ein</text><text font-family="Calibri,Calibri_MSFontService,sans-serif" font-weight="700" font-size="16" transform="matrix(1 0 0 0.998677 566.571 86)">ist ein</text><path d="M1.0436-1.70355 50.2926 28.4666 48.2054 31.8737-1.0436 1.70355ZM50.6763 24.0159 57.7668 35.3881 44.4147 34.2372Z" fill="#FFFFFF" transform="matrix(1.00132 0 0 -1 600 122.273)"/><text font-family="Calibri,Calibri_MSFontService,sans-serif" font-weight="700" font-size="16" transform="matrix(1 0 0 0.998677 627.931 112)">frisst</text></g></svg>